<svg width="77" height="84" viewBox="0 0 77 84" fill="none" xmlns="http://www.w3.org/2000/svg">
<path d="M27.3012 40.0507C26.203 39.0911 24.4222 39.0911 23.3238 40.0507C22.2254 41.0104 22.2254 42.5662 23.3238 43.5258L32.0738 51.1707C32.623 51.6505 33.3428 51.8905 34.0624 51.8905C34.7821 51.8905 35.5021 51.6507 36.0511 51.1707L53.551 35.8811C54.6493 34.9214 54.6493 33.3657 53.551 32.406C52.4528 31.4464 50.6719 31.4464 49.5735 32.406L34.0623 45.958L27.3012 40.0507Z" fill="#FFE900"/>
<path d="M74.0456 11.4672C65.9391 11.4672 58.5534 7.57557 54.7714 1.31087C54.2848 0.504557 53.3271 0 52.2838 0H24.5912C23.5479 0 22.5902 0.504557 22.1034 1.31087C18.3216 7.57557 10.9359 11.4672 2.8125 11.4672C1.25925 11.4672 0 12.5674 0 13.9245V38.9477C0 49.0074 3.59756 58.6134 10.4036 66.7272C17.2101 74.8411 26.6109 80.731 37.5906 83.7603C37.8662 83.8363 38.1517 83.8743 38.4375 83.8743C38.7233 83.8743 39.0088 83.8363 39.2844 83.7603C50.2641 80.731 59.6649 74.8411 66.4714 66.7272C73.2774 58.6134 76.875 49.0074 76.875 38.9477V13.9245C76.875 12.5674 75.5989 11.4672 74.0456 11.4672ZM71.25 38.9477C71.25 57.1338 58.1014 73.0644 38.4375 78.833C18.7736 73.0644 5.625 57.1338 5.625 38.9477V16.2584C14.1371 15.5035 21.7496 11.3299 26.2271 4.91452H50.6481C55.1231 11.3267 62.7311 15.4993 71.25 16.2572V38.9477Z" fill="#FFE900"/>
<path d="M48.4871 10.7313C47.9529 10.1603 47.1532 9.82904 46.3091 9.82904H30.5657C29.7216 9.82904 28.9221 10.1603 28.3881 10.7313C24.4112 14.9826 19.1537 18.1361 13.1841 19.8506C12.03 20.182 11.25 21.1234 11.25 22.185V38.9479C11.25 53.9965 21.4967 67.4533 37.3551 73.2307C37.7016 73.3568 38.0696 73.4199 38.4375 73.4199C38.8054 73.4199 39.1736 73.3568 39.5199 73.2307C55.3783 67.4533 65.625 53.9965 65.625 38.9479V22.1866C65.625 21.1252 64.8452 20.1838 63.6911 19.8522C57.7213 18.137 52.4638 14.9832 48.4871 10.7313ZM60 38.9479C60 51.6608 51.5754 63.0636 38.4375 68.2827C25.2996 63.0638 16.875 51.661 16.875 38.9479V23.9137C22.647 21.9538 27.7794 18.8167 31.869 14.7436H45.0058C49.0956 18.8172 54.2274 21.9548 60 23.915V38.9479Z" fill="#FFE900"/>
</svg>
