<svg width="78" height="69" viewBox="0 0 78 69" fill="none" xmlns="http://www.w3.org/2000/svg">
<path d="M75 62.9058H72V34.074C71.9997 33.5502 71.8201 33.0384 71.4841 32.6046C71.1481 32.1708 70.6712 31.8348 70.1148 31.6398L40.1148 21.1555C39.3759 20.8972 38.5498 20.9059 37.8182 21.1797C37.0867 21.4536 36.5096 21.9701 36.2139 22.6157C35.9182 23.2613 35.9282 23.983 36.2416 24.6222C36.5551 25.2614 37.1463 25.7655 37.8852 26.0239L66 35.849V41.9372H45C44.2043 41.9372 43.4413 42.2133 42.8787 42.7049C42.3161 43.1964 42 43.8631 42 44.5583C42 45.2534 42.3161 45.9201 42.8787 46.4117C43.4413 46.9032 44.2043 47.1793 45 47.1793H66V52.4215H45C44.2043 52.4215 43.4413 52.6976 42.8787 53.1892C42.3161 53.6807 42 54.3474 42 55.0426C42 55.7377 42.3161 56.4044 42.8787 56.896C43.4413 57.3875 44.2043 57.6636 45 57.6636H66V62.9058H35.76L29.9898 2.40353C29.9273 1.74828 29.5853 1.13748 29.0315 0.692268C28.4777 0.247059 27.7526 -3.31701e-05 27 3.33984e-09H15C14.2474 -3.31701e-05 13.5223 0.247059 12.9685 0.692268C12.4147 1.13748 12.0727 1.74828 12.0102 2.40353L6.24 62.9058H3C2.20435 62.9058 1.44129 63.1819 0.87868 63.6735C0.31607 64.165 0 64.8317 0 65.5269C0 66.222 0.31607 66.8887 0.87868 67.3803C1.44129 67.8718 2.20435 68.1479 3 68.1479H75C75.7956 68.1479 76.5587 67.8718 77.1213 67.3803C77.6839 66.8887 78 66.222 78 65.5269C78 64.8317 77.6839 64.165 77.1213 63.6735C76.5587 63.1819 75.7956 62.9058 75 62.9058ZM24.24 5.24215L25.2399 15.7264H16.7598L17.76 5.24215H24.24ZM16.26 20.9686H25.74L29.7396 62.9058H12.2604L16.26 20.9686Z" fill="#FFE900"/>
</svg>
