<svg width="66" height="84" viewBox="0 0 66 84" fill="none" xmlns="http://www.w3.org/2000/svg">
<path d="M50.6837 55.0245L53.8331 59.4569L59.2907 56.4965C57.2661 65.1725 49.7214 67.3408 42.39 69.4486C40.0901 70.1098 37.8474 70.7562 35.8838 71.6012V32.9435H47.7849V27.7264H35.8838V18.9797C40.5373 17.8374 43.9605 14.097 43.9605 9.66867C43.9605 4.33739 38.9979 0 32.898 0C26.7939 0 21.8278 4.33739 21.8278 9.66867C21.8278 14.0978 25.2546 17.8386 29.9124 18.9804V27.7263H18.0077V32.9434H29.9124V71.6046C27.9467 70.758 25.7012 70.1107 23.3981 69.4488C16.0667 67.3409 8.52225 65.1723 6.49744 56.4967L11.955 59.457L15.1044 55.0246L0 46.832V51.5217C0 58.895 2.44313 64.3783 7.4685 68.2842C11.7103 71.581 16.9279 73.0811 21.5312 74.4046C25.6727 75.5955 29.2491 76.6238 30.1601 78.4359L32.8939 83.8745L35.6276 78.4359C36.5387 76.6236 40.1151 75.5953 44.2566 74.4046C48.8599 73.0811 54.0774 71.581 58.3193 68.2842C63.3448 64.3781 65.7878 58.8951 65.7878 51.5217V46.832L50.6837 55.0245ZM32.8982 14.1235C30.0864 14.1235 27.7993 12.1249 27.7993 9.66867C27.7993 7.21419 30.0868 5.21709 32.8982 5.21709C35.7054 5.21709 37.9894 7.21403 37.9894 9.66867C37.9894 12.1251 35.7056 14.1235 32.8982 14.1235Z" fill="#FFE900"/>
</svg>
