<svg width="69" height="84" viewBox="0 0 69 84" fill="none" xmlns="http://www.w3.org/2000/svg">
<path d="M68.6251 2.45726C68.6251 1.1002 67.3658 0 65.8126 0H2.8125C1.25925 0 0 1.1002 0 2.45726V62.9058C0 63.7275 0.470063 64.4947 1.2525 64.9502L32.7525 83.4616C33.6973 84.0118 34.9277 84.0118 35.8727 83.4616L67.3727 64.9502C68.1552 64.4947 68.6252 63.7273 68.6252 62.9058C68.6251 59.5292 68.6251 4.46254 68.6251 2.45726ZM5.625 46.5285L32.7525 62.3292C33.6973 62.8794 34.9277 62.8794 35.8727 62.3292L63 46.5285V51.1064L34.3125 67.8157L5.625 51.1064V46.5285ZM63 4.91452V40.6222L34.3125 57.3316L5.625 40.6222V4.91452H63ZM34.3125 78.464L5.625 61.5908V57.013L32.7525 72.8136C33.6973 73.3639 34.9277 73.3639 35.8727 72.8136L63 57.0128V61.5907L34.3125 78.464Z" fill="#FFE900"/>
<path d="M15.6616 25.8831L24.5134 31.502L21.1324 40.5935C20.7558 41.606 21.1683 42.7151 22.1541 43.3409C23.1396 43.9663 24.4748 43.9663 25.4603 43.3409L34.3124 37.7219L43.1644 43.341C44.1501 43.9666 45.4851 43.9665 46.4706 43.341C47.4565 42.7152 47.869 41.606 47.4923 40.5937L44.1113 31.502L52.9632 25.8831C53.9491 25.2573 54.3616 24.1481 53.9849 23.1357C53.6084 22.1231 52.5284 21.4377 51.31 21.4377H40.3684L36.9872 12.346C36.6107 11.3336 35.5308 10.6481 34.3124 10.6481C33.094 10.6481 32.014 11.3336 31.6375 12.346L28.2563 21.4377H17.3148C16.0964 21.4377 15.0164 22.1233 14.6399 23.1357C14.2632 24.1481 14.6757 25.2573 15.6616 25.8831ZM30.2999 26.3522C31.5183 26.3522 32.5983 25.6666 32.9748 24.6543L34.3124 21.0572L35.6502 24.6543C36.0267 25.6668 37.1067 26.3522 38.3251 26.3522H42.6542L39.1519 28.5752C38.1661 29.201 37.7536 30.3102 38.1302 31.3226L39.4681 34.9197L35.9656 32.6965C34.9799 32.0709 33.6449 32.0711 32.6594 32.6965L29.1569 34.9197L30.4947 31.3226C30.8714 30.3102 30.4589 29.2012 29.473 28.5752L25.9707 26.3522H30.2999Z" fill="#FFE900"/>
</svg>
