<svg width="91" height="81" viewBox="0 0 91 81" fill="none" xmlns="http://www.w3.org/2000/svg">
<path d="M79.3971 24.8851L32.4909 2.36026C27.3327 -0.113382 21.3766 -0.670361 15.7546 0.820376C10.0954 2.29473 5.43815 5.65298 2.63639 10.2562C-3.11556 19.7085 0.855142 31.5853 11.5241 36.6964L15.3464 38.5311C13.9733 40.2676 12.8044 42.1678 11.8952 44.2156C5.90202 57.7632 13.4538 73.1129 28.7428 78.437C32.2311 79.6492 35.8864 80.2717 39.6159 80.2717C51.9547 80.2717 62.8463 73.6863 67.3366 63.4968C67.6334 62.8416 67.8747 62.1863 68.1159 61.531C68.6725 61.5638 69.2106 61.5966 69.7487 61.5966C77.3747 61.5966 84.3327 57.8615 88.2848 51.358C94.0368 41.873 90.0661 30.0126 79.3971 24.8851ZM18.9645 46.6564C22.3229 39.0553 30.4313 34.1408 39.6344 34.1408C41.1374 34.1408 42.6217 34.2719 44.0876 34.5503L28.112 70.7212C19.0387 65.8394 14.9567 55.7155 18.9645 46.6564ZM60.2672 61.056C56.9088 68.6571 48.8004 73.5716 39.5973 73.5716C38.0944 73.5716 36.61 73.4406 35.1442 73.1621L51.1198 36.9912C60.193 41.873 64.275 52.0133 60.2672 61.056ZM81.6051 48.1799C78.9147 52.5866 74.3874 55.0275 69.359 54.8964C69.8229 43.9862 62.568 33.4855 50.4889 29.2918C47.0006 28.0796 43.3454 27.4571 39.6159 27.4571C32.4909 27.4571 25.8483 29.6522 20.6344 33.4692L15.1423 30.8317C8.12858 27.4571 5.51237 19.6594 9.31608 13.4179C11.153 10.4037 14.2145 8.19215 17.9069 7.22563C21.5993 6.25911 25.4772 6.61951 28.8542 8.2413L75.7419 30.7662C82.7926 34.1408 85.4088 41.9385 81.6051 48.1799Z" fill="#FFE900"/>
</svg>
