<svg width="96" height="96" viewBox="0 0 96 96" fill="none" xmlns="http://www.w3.org/2000/svg">
<path d="M47.9063 51.2622C52.5653 51.2622 56.3557 47.4771 56.3557 42.8247C56.3557 38.1723 52.5653 34.3872 47.9063 34.3872C43.2473 34.3872 39.457 38.1723 39.457 42.8247C39.457 47.4771 43.2473 51.2622 47.9063 51.2622ZM47.9063 40.0122C49.4637 40.0122 50.7307 41.2739 50.7307 42.8247C50.7307 44.3755 49.4637 45.6372 47.9063 45.6372C46.349 45.6372 45.082 44.3755 45.082 42.8247C45.082 41.2739 46.349 40.0122 47.9063 40.0122Z" fill="#FFE900"/>
<path d="M2.8125 55.0682H5.73056V93.1875C5.73056 94.7408 6.98981 96 8.54306 96H87.4567C89.01 96 90.2692 94.7408 90.2692 93.1875V55.0682H93.1875C94.7408 55.0682 96 53.8089 96 52.2557V42.8807C96 41.7081 95.2723 40.6584 94.1743 40.2471L50.8125 24.0002V16.875H64.383C65.9362 16.875 67.1955 15.6158 67.1955 14.0625V2.8125C67.1955 1.25925 65.9362 0 64.383 0H48C46.4468 0 45.1875 1.25925 45.1875 2.8125V24.0002L1.82569 40.2471C0.727688 40.6584 0 41.7081 0 42.8807V52.2557C0 53.8089 1.25925 55.0682 2.8125 55.0682ZM28.1835 90.375H22.5353V69.1307C22.5353 67.5799 23.7969 66.3182 25.3478 66.3182H25.371C26.9218 66.3182 28.1835 67.5799 28.1835 69.1307V90.375ZM45.0819 90.375V65.3248C45.0819 63.774 46.3436 62.5123 47.8944 62.5123H47.9179C49.4687 62.5123 50.7304 63.774 50.7304 65.3248V90.375H45.0819ZM73.4649 90.375H67.8167V69.1307C67.8167 67.5799 69.0784 66.3182 70.6292 66.3182H70.6524C72.2032 66.3182 73.4649 67.5799 73.4649 69.1307V90.375ZM50.8125 5.625H61.5705V11.25H50.8125V5.625ZM5.625 44.8303L48 28.9532L90.375 44.8303V49.4432C88.0749 49.4432 64.2486 49.4432 62.9137 49.4432C61.3605 49.4432 60.1012 50.7024 60.1012 52.2557C60.1012 53.8089 61.3605 55.0682 62.9137 55.0682H84.6442V90.375H79.0898V69.1307C79.0898 64.4782 75.3047 60.6932 70.6523 60.6932H70.629C65.9766 60.6932 62.1915 64.4782 62.1915 69.1307V90.375H56.3552V65.3248C56.3552 60.6724 52.5701 56.8873 47.9177 56.8873H47.8942C43.2418 56.8873 39.4567 60.6724 39.4567 65.3248V90.375H33.8083V69.1307C33.8083 64.4782 30.0233 60.6932 25.3708 60.6932H25.3476C20.6951 60.6932 16.9101 64.4782 16.9101 69.1307V90.375H11.3556V55.0682H32.8984C34.4516 55.0682 35.7109 53.8089 35.7109 52.2557C35.7109 50.7024 34.4516 49.4432 32.8984 49.4432C31.7951 49.4432 6.81956 49.4432 5.625 49.4432V44.8303Z" fill="#FFE900"/>
</svg>
