<svg width="96" height="84" viewBox="0 0 96 84" fill="none" xmlns="http://www.w3.org/2000/svg">
<path d="M77.7526 65.4122L68.582 28.689C67.9506 26.1609 66.3326 23.8749 64.0261 22.2517C61.7195 20.6289 58.818 19.7351 55.8565 19.7351H38.5528C32.3657 19.7351 26.9942 23.5825 25.7808 28.8832L17.4166 65.4223C13.6266 66.5644 10.8955 69.7099 10.8955 73.4042V83.8745H84.3074V73.4042C84.3074 69.6989 81.5601 66.5459 77.7526 65.4122ZM31.3181 29.8507C32.0056 26.8482 35.0482 24.6689 38.5528 24.6689H55.8565C59.2993 24.6689 62.3309 26.802 63.0648 29.7407L71.8603 64.9616H50.425V58.9366C56.3378 57.804 60.7779 53.1943 60.7779 47.6933C60.7779 41.3453 54.8671 36.1811 47.6014 36.1811C40.3359 36.1811 34.425 41.3453 34.425 47.6933C34.425 53.1943 38.8651 57.804 44.7779 58.9366V64.9616H23.2808L31.3181 29.8507ZM47.6014 54.2717C43.4497 54.2717 40.072 51.3206 40.072 47.6933C40.072 44.066 43.4497 41.1149 47.6014 41.1149C51.7532 41.1149 55.1309 44.066 55.1309 47.6933C55.1309 51.3206 51.7532 54.2717 47.6014 54.2717ZM78.6603 78.9407H16.5426V73.4042C16.5426 71.4695 18.3442 69.8954 20.5586 69.8954H74.6443C76.8587 69.8954 78.6603 71.4695 78.6603 73.4042V78.9407Z" fill="#FFE900"/>
<path d="M44.7778 0H50.4249V14.8015H44.7778V0Z" fill="#FFE900"/>
<path d="M77.5229 31.1226L94.1422 28.2215L95.249 33.0616L78.6298 35.9627L77.5229 31.1226Z" fill="#FFE900"/>
<path d="M68.1846 16.3516L80.162 5.88709L84.1544 9.37524L72.177 19.8397L68.1846 16.3516Z" fill="#FFE900"/>
<path d="M0 33.0322L1.10686 28.1919L17.7262 31.093L16.6193 35.9334L0 33.0322Z" fill="#FFE900"/>
<path d="M11.0352 9.36963L15.0276 5.88141L27.005 16.3461L23.0125 19.8343L11.0352 9.36963Z" fill="#FFE900"/>
</svg>
