<svg width="96" height="96" viewBox="0 0 96 96" fill="none" xmlns="http://www.w3.org/2000/svg">
<path d="M81.9023 14.0978C72.8113 5.00663 60.7712 0 48 0C35.2288 0 23.1887 5.00663 14.0978 14.0978C5.00663 23.1887 0 35.2288 0 48C0 60.7712 5.00663 72.8113 14.0978 81.9023C23.1887 90.9934 35.2288 96 48 96C60.7712 96 72.8113 90.9934 81.9023 81.9023C90.9934 72.8113 96 60.7712 96 48C96 35.2288 90.9934 23.1887 81.9023 14.0978ZM48 90.375C24.6343 90.375 5.625 71.3657 5.625 48C5.625 24.6343 24.6343 5.625 48 5.625C71.3657 5.625 90.375 24.6343 90.375 48C90.375 71.3657 71.3657 90.375 48 90.375Z" fill="#FFE900"/>
<path d="M48 11.4375C27.8394 11.4375 11.4375 27.8394 11.4375 48C11.4375 68.1606 27.8394 84.5625 48 84.5625C68.1606 84.5625 84.5625 68.1606 84.5625 48C84.5625 27.8394 68.1606 11.4375 48 11.4375ZM48 78.9375C30.9411 78.9375 17.0625 65.0589 17.0625 48C17.0625 30.9411 30.9411 17.0625 48 17.0625C65.0589 17.0625 78.9375 30.9411 78.9375 48C78.9375 65.0589 65.0589 78.9375 48 78.9375Z" fill="#FFE900"/>
<path d="M56.4375 39.534C56.4375 41.0873 57.6968 42.3465 59.25 42.3465C60.8032 42.3465 62.0625 41.0873 62.0625 39.534C62.0625 36.4193 60.4515 33.4245 57.6424 31.3177C55.7237 29.8787 53.3629 28.9174 50.8125 28.5084V25.4713C50.8125 23.9181 49.5533 22.6588 48 22.6588C46.4467 22.6588 45.1875 23.9181 45.1875 25.4713V28.5084C42.6369 28.9174 40.2761 29.8787 38.3576 31.3177C35.5485 33.4245 33.9375 36.4193 33.9375 39.534C33.9375 42.6488 35.5485 45.6433 38.3576 47.7502C40.2763 49.1893 42.6371 50.1506 45.1875 50.5596V61.6987C41.9475 60.9069 39.5625 58.8043 39.5625 56.409C39.5625 54.8557 38.3033 53.5965 36.75 53.5965C35.1967 53.5965 33.9375 54.8557 33.9375 56.409C33.9375 59.5237 35.5485 62.5183 38.3576 64.6252C40.2763 66.0643 42.6371 67.0256 45.1875 67.4346V70.5C45.1875 72.0532 46.4467 73.3125 48 73.3125C49.5533 73.3125 50.8125 72.0532 50.8125 70.5V67.4346C53.3631 67.0256 55.7239 66.0643 57.6424 64.6252C60.4515 62.5185 62.0625 59.5237 62.0625 56.409C62.0625 53.2942 60.4515 50.2995 57.6424 48.1928C55.7237 46.7537 53.3629 45.7924 50.8125 45.3834V34.2443C54.0525 35.0363 56.4375 37.1387 56.4375 39.534ZM39.5625 39.534C39.5625 37.1387 41.9475 35.0361 45.1875 34.2443V44.8236C41.9475 44.0319 39.5625 41.9293 39.5625 39.534ZM56.4375 56.409C56.4375 58.8043 54.0525 60.9069 50.8125 61.6987V51.1194C54.0525 51.9112 56.4375 54.0137 56.4375 56.409Z" fill="#FFE900"/>
</svg>
