<?xml version="1.0" encoding="utf-8"?>
<!-- Generator: Adobe Illustrator 22.0.0, SVG Export Plug-In . SVG Version: 6.00 Build 0)  -->
<svg version="1.1" id="Calque_1" xmlns="http://www.w3.org/2000/svg" xmlns:xlink="http://www.w3.org/1999/xlink" x="0px" y="0px"
	 viewBox="0 0 25.2 25" style="enable-background:new 0 0 25.2 25;" xml:space="preserve">
<style type="text/css">
	.st0{fill:#FFFFFF;}
</style>
<path class="st0" d="M7.1,22.5V8.8H2.6v13.7H7.1z M4.8,6.9c1.6,0,2.6-1.1,2.6-2.4c0-1.3-1-2.4-2.5-2.4c-1.5,0-2.6,1-2.6,2.4
	C2.3,5.9,3.3,6.9,4.8,6.9L4.8,6.9L4.8,6.9z M9.6,22.5h4.5v-7.6c0-0.4,0-0.8,0.1-1.1c0.3-0.8,1.1-1.7,2.3-1.7c1.6,0,2.3,1.3,2.3,3.1
	v7.3h4.5v-7.8c0-4.2-2.2-6.2-5.2-6.2c-2.4,0-3.5,1.4-4.1,2.3h0v-2H9.6C9.6,10.1,9.6,22.5,9.6,22.5L9.6,22.5z"/>
</svg>
