<svg width="132" height="132" viewBox="0 0 132 132" fill="none" xmlns="http://www.w3.org/2000/svg">
<path d="M66 33L60.1012 38.7461L83.1187 61.875H33V70.125H83.1187L60.1012 93.1136L66 99L99 66L66 33Z" fill="#250E62"/>
<path d="M66 123.75C54.5782 123.75 43.4128 120.363 33.9158 114.017C24.4189 107.672 17.0169 98.6524 12.646 88.1C8.27502 77.5476 7.13138 65.936 9.35968 54.7336C11.588 43.5312 17.0881 33.2411 25.1646 25.1646C33.2411 17.0881 43.5312 11.588 54.7336 9.35968C65.936 7.13138 77.5476 8.27502 88.1 12.646C98.6524 17.0169 107.672 24.4189 114.017 33.9158C120.363 43.4128 123.75 54.5782 123.75 66C123.733 81.3109 117.643 95.9897 106.816 106.816C95.9897 117.643 81.3109 123.733 66 123.75ZM66 16.5C56.2098 16.5 46.6395 19.4031 38.4993 24.8423C30.3591 30.2814 24.0145 38.0123 20.268 47.0572C16.5215 56.1021 15.5412 66.0549 17.4512 75.657C19.3611 85.259 24.0755 94.0791 30.9982 101.002C37.9209 107.924 46.741 112.639 56.3431 114.549C65.9451 116.459 75.8979 115.479 84.9428 111.732C93.9878 107.986 101.719 101.641 107.158 93.5007C112.597 85.3605 115.5 75.7902 115.5 66C115.485 52.8765 110.265 40.2949 100.985 31.0151C91.7052 21.7354 79.1235 16.5153 66 16.5Z" fill="#250E62"/>
</svg>
