<svg width="92" height="92" viewBox="0 0 92 92" fill="none" xmlns="http://www.w3.org/2000/svg">
<path d="M57.385 36.8644C58.5124 36.8647 59.6004 37.279 60.4425 38.0287C61.2846 38.7783 61.822 39.8111 61.9528 40.9308L61.985 41.4644V61.5572C62.0151 65.7518 60.3994 69.791 57.4849 72.8077C54.5703 75.8244 50.5892 77.5782 46.3961 77.6926C42.203 77.807 38.1322 76.2729 35.0575 73.4196C31.9828 70.5663 30.1493 66.6212 29.9506 62.4312L29.9276 61.5572V41.4644C29.9279 40.337 30.3422 39.249 31.0918 38.4069C31.8414 37.5649 32.8742 37.0274 33.994 36.8966L34.5276 36.8644H57.385ZM57.385 41.4644H34.5276V61.5572C34.5209 64.5272 35.6709 67.383 37.7338 69.5196C39.7968 71.6562 42.6105 72.9056 45.5789 73.0031C48.5472 73.1006 51.4369 72.0385 53.6356 70.0419C55.8343 68.0453 57.1692 65.271 57.3574 62.307L57.385 61.5572V41.4644ZM26.565 36.8644C25.8957 38.0194 25.4874 39.3069 25.369 40.6364L25.3276 41.4644H13.8736V58.6684C13.8731 60.0947 14.2299 61.4983 14.9114 62.7511C15.5929 64.0039 16.5775 65.0661 17.7751 65.8405C18.9727 66.615 20.3452 67.0771 21.7674 67.1847C23.1895 67.2922 24.6159 67.0418 25.9164 66.4562C26.2844 67.9696 26.818 69.4186 27.5034 70.7802C25.5664 71.5937 23.4626 71.9309 21.3684 71.7633C19.2742 71.5957 17.2508 70.9284 15.4678 69.8172C13.6848 68.7061 12.1943 67.1835 11.1213 65.3773C10.0483 63.5711 9.42418 61.5339 9.30119 59.4366L9.27819 58.6638V41.4644C9.27834 40.3378 9.69199 39.2503 10.4407 38.4083C11.1894 37.5664 12.221 37.0285 13.34 36.8966L13.8782 36.8644H26.5604H26.565ZM65.3522 36.8644H78.1586C79.286 36.8647 80.374 37.279 81.2161 38.0287C82.0582 38.7783 82.5956 39.8111 82.7264 40.9308L82.7586 41.4644V58.6684C82.7587 60.8438 82.2187 62.9852 81.1869 64.9003C80.1552 66.8155 78.664 68.4444 76.8473 69.641C75.0306 70.8376 72.9451 71.5643 70.7782 71.7559C68.6113 71.9475 66.4307 71.598 64.4322 70.7388C65.113 69.368 65.6466 67.919 66.01 66.4011C67.2595 66.984 68.6317 67.2557 70.0091 67.1929C71.3865 67.13 72.7282 66.7345 73.9194 66.0401C75.1106 65.3457 76.116 64.3731 76.8494 63.2055C77.5828 62.0379 78.0226 60.71 78.131 59.3354L78.1586 58.6684V41.4644H66.585L66.5574 40.779C66.457 39.3998 66.0449 38.0613 65.3522 36.8644ZM45.9494 13.7495C48.6669 13.7495 51.2732 14.829 53.1948 16.7506C55.1163 18.6722 56.1959 21.2784 56.1959 23.9959C56.1959 26.7135 55.1163 29.3197 53.1948 31.2413C51.2732 33.1629 48.6669 34.2425 45.9494 34.2425C43.2318 34.2425 40.6256 33.1629 38.704 31.2413C36.7824 29.3197 35.7029 26.7135 35.7029 23.9959C35.7029 21.2784 36.7824 18.6722 38.704 16.7506C40.6256 14.829 43.2318 13.7495 45.9494 13.7495ZM68.8896 16.6383C71.224 16.6383 73.4629 17.5656 75.1136 19.2163C76.7643 20.867 77.6917 23.1059 77.6917 25.4403C77.6917 27.7748 76.7643 30.0137 75.1136 31.6644C73.4629 33.3151 71.224 34.2425 68.8896 34.2425C66.5551 34.2425 64.3163 33.3151 62.6656 31.6644C61.0149 30.0137 60.0875 27.7748 60.0875 25.4403C60.0875 23.1059 61.0149 20.867 62.6656 19.2163C64.3163 17.5656 66.5551 16.6383 68.8896 16.6383ZM23.0782 16.6383C25.4127 16.6383 27.6515 17.5656 29.3022 19.2163C30.9529 20.867 31.8803 23.1059 31.8803 25.4403C31.8803 27.7748 30.9529 30.0137 29.3022 31.6644C27.6515 33.3151 25.4127 34.2425 23.0782 34.2425C20.7437 34.2425 18.5049 33.3151 16.8542 31.6644C15.2035 30.0137 14.2761 27.7748 14.2761 25.4403C14.2761 23.1059 15.2035 20.867 16.8542 19.2163C18.5049 17.5656 20.7437 16.6383 23.0782 16.6383ZM45.9494 18.3495C44.4518 18.3495 43.0156 18.9443 41.9567 20.0033C40.8978 21.0622 40.3029 22.4984 40.3029 23.9959C40.3029 25.4935 40.8978 26.9297 41.9567 27.9886C43.0156 29.0476 44.4518 29.6424 45.9494 29.6424C47.4469 29.6424 48.8831 29.0476 49.9421 27.9886C51.001 26.9297 51.5959 25.4935 51.5959 23.9959C51.5959 22.4984 51.001 21.0622 49.9421 20.0033C48.8831 18.9443 47.4469 18.3495 45.9494 18.3495ZM68.8896 21.2383C67.7751 21.2383 66.7063 21.681 65.9183 22.469C65.1302 23.2571 64.6875 24.3259 64.6875 25.4403C64.6875 26.5548 65.1302 27.6236 65.9183 28.4117C66.7063 29.1997 67.7751 29.6424 68.8896 29.6424C70.0041 29.6424 71.0729 29.1997 71.8609 28.4117C72.649 27.6236 73.0917 26.5548 73.0917 25.4403C73.0917 24.3259 72.649 23.2571 71.8609 22.469C71.0729 21.681 70.0041 21.2383 68.8896 21.2383ZM23.0782 21.2383C21.9637 21.2383 20.8949 21.681 20.1069 22.469C19.3188 23.2571 18.8761 24.3259 18.8761 25.4403C18.8761 26.5548 19.3188 27.6236 20.1069 28.4117C20.8949 29.1997 21.9637 29.6424 23.0782 29.6424C24.1927 29.6424 25.2615 29.1997 26.0495 28.4117C26.8376 27.6236 27.2803 26.5548 27.2803 25.4403C27.2803 24.3259 26.8376 23.2571 26.0495 22.469C25.2615 21.681 24.1927 21.2383 23.0782 21.2383Z" fill="#FFE900"/>
</svg>
