<?xml version="1.0" encoding="utf-8"?>
<!-- Generator: Adobe Illustrator 22.0.0, SVG Export Plug-In . SVG Version: 6.00 Build 0)  -->
<svg version="1.1" id="Calque_1" xmlns="http://www.w3.org/2000/svg" xmlns:xlink="http://www.w3.org/1999/xlink" x="0px" y="0px"
	 viewBox="0 0 132 132" style="enable-background:new 0 0 132 132;" xml:space="preserve">
<style type="text/css">
	.st0{fill:#250E62;}
</style>
<path class="st0" d="M66,99l5.9-5.7l-23-23.1H99v-8.2H48.9l23-23L66,33L33,66L66,99z"/>
<path class="st0" d="M66,8.3c11.4,0,22.6,3.4,32.1,9.7c9.5,6.3,16.9,15.4,21.3,25.9c4.4,10.6,5.5,22.2,3.3,33.4
	c-2.2,11.2-7.7,21.5-15.8,29.6s-18.4,13.6-29.6,15.8c-11.2,2.2-22.8,1.1-33.4-3.3C33.3,115,24.3,107.6,18,98.1
	C11.6,88.6,8.3,77.4,8.3,66c0-15.3,6.1-30,16.9-40.8C36,14.4,50.7,8.3,66,8.3z M66,115.5c9.8,0,19.4-2.9,27.5-8.3
	c8.1-5.4,14.5-13.2,18.2-22.2s4.7-19,2.8-28.6c-1.9-9.6-6.6-18.4-13.5-25.3c-6.9-6.9-15.7-11.6-25.3-13.5
	c-9.6-1.9-19.6-0.9-28.6,2.8C38,24,30.3,30.4,24.8,38.5c-5.4,8.1-8.3,17.7-8.3,27.5c0,13.1,5.2,25.7,14.5,35
	C40.3,110.3,52.9,115.5,66,115.5z"/>
</svg>
