<svg width="68" height="65" viewBox="0 0 68 65" fill="none" xmlns="http://www.w3.org/2000/svg">
<path d="M59.5 11.9254H48.2109V9.04234C48.2109 6.68347 47.3919 4.6959 45.7539 3.07964C44.1159 1.46337 42.1016 0.655243 39.7109 0.655243H28.2891C25.8984 0.655243 23.8841 1.46337 22.2461 3.07964C20.6081 4.6959 19.7891 6.68347 19.7891 9.04234V11.9254H8.5C6.10938 11.9254 4.09505 12.7117 2.45703 14.2843C0.81901 15.8569 0 17.8663 0 20.3125V31.4516C0 33.2863 0.929688 34.2036 2.78906 34.2036V56.6129C2.78906 58.0981 3.36458 59.4086 4.51562 60.5444C5.66667 61.6801 6.99479 62.248 8.5 62.248H59.5C61.0052 62.248 62.3333 61.6801 63.4844 60.5444C64.6354 59.4086 65.2109 58.0981 65.2109 56.6129V34.2036C67.0703 34.2036 68 33.2863 68 31.4516V20.3125C68 17.8663 67.181 15.8569 65.543 14.2843C63.9049 12.7117 61.8906 11.9254 59.5 11.9254ZM25.5 9.04234C25.5 8.25605 25.7656 7.60081 26.2969 7.07661C26.8281 6.55242 27.4922 6.29032 28.2891 6.29032H39.7109C40.5078 6.29032 41.1719 6.55242 41.7031 7.07661C42.2344 7.60081 42.5 8.25605 42.5 9.04234V11.9254H25.5V9.04234ZM8.5 56.6129V34.2036H25.5V42.5907C25.5 44.1633 26.0534 45.4956 27.1602 46.5877C28.2669 47.6798 29.6172 48.2258 31.2109 48.2258H36.7891C38.3828 48.2258 39.7331 47.6798 40.8398 46.5877C41.9466 45.4956 42.5 44.1633 42.5 42.5907V34.2036H59.5V56.6129H8.5ZM31.2109 42.5907V34.2036H36.7891V42.5907H31.2109ZM62.2891 28.6996H5.71094V20.3125C5.71094 18.3905 6.64062 17.4294 8.5 17.4294H59.5C61.3594 17.4294 62.2891 18.3905 62.2891 20.3125V28.6996Z" fill="#FFE900"/>
</svg>
