<svg width="66" height="66" viewBox="0 0 66 66" fill="none" xmlns="http://www.w3.org/2000/svg">
<path d="M19.25 49.5H46.75V44H19.25V49.5Z" fill="#FFE900"/>
<path d="M46.75 38.5H19.25V33H46.75V38.5Z" fill="#FFE900"/>
<path d="M19.25 27.5H30.25V22H19.25V27.5Z" fill="#FFE900"/>
<path fill-rule="evenodd" clip-rule="evenodd" d="M16.5 5.5C14.312 5.5 12.2135 6.36919 10.6664 7.91637C9.11919 9.46354 8.25 11.562 8.25 13.75V52.25C8.25 54.438 9.11919 56.5365 10.6664 58.0836C12.2135 59.6308 14.312 60.5 16.5 60.5H49.5C51.688 60.5 53.7865 59.6308 55.3336 58.0836C56.8808 56.5365 57.75 54.438 57.75 52.25V24.75C57.75 19.6446 55.7219 14.7483 52.1118 11.1382C48.5017 7.52812 43.6054 5.5 38.5 5.5H16.5ZM16.5 11H35.75V24.75H52.25V52.25C52.25 52.9794 51.9603 53.6788 51.4445 54.1945C50.9288 54.7103 50.2293 55 49.5 55H16.5C15.7707 55 15.0712 54.7103 14.5555 54.1945C14.0397 53.6788 13.75 52.9794 13.75 52.25V13.75C13.75 13.0207 14.0397 12.3212 14.5555 11.8055C15.0712 11.2897 15.7707 11 16.5 11ZM41.25 11.275C43.4114 11.7178 45.4349 12.6733 47.1501 14.0612C48.8652 15.449 50.2219 17.2285 51.106 19.25H41.25V11.275Z" fill="#FFE900"/>
</svg>
