<?xml version="1.0" encoding="utf-8"?>
<!-- Generator: Adobe Illustrator 22.0.0, SVG Export Plug-In . SVG Version: 6.00 Build 0)  -->
<svg version="1.1" id="Calque_1" xmlns="http://www.w3.org/2000/svg" xmlns:xlink="http://www.w3.org/1999/xlink" x="0px" y="0px"
	 viewBox="0 0 25.2 25.2" style="enable-background:new 0 0 25.2 25.2;" xml:space="preserve">
<style type="text/css">
	.st0{fill:#250E62;}
</style>
<path class="st0" d="M21.8,6.4c-0.7,0.3-1.5,0.6-2.3,0.7c0.8-0.5,1.4-1.3,1.7-2.3c-0.8,0.5-1.6,0.8-2.5,1c-0.6-0.7-1.4-1.1-2.2-1.3
	c-0.9-0.2-1.7,0-2.5,0.4c-0.8,0.4-1.4,1.1-1.7,2c-0.4,0.8-0.4,1.8-0.2,2.7C10.4,9.5,8.9,9,7.5,8.3C6.1,7.5,4.9,6.4,3.9,5.2
	C3.5,5.8,3.3,6.5,3.3,7.3c0,0.7,0.2,1.4,0.5,2c0.3,0.6,0.7,1.1,1.3,1.5c-0.6,0-1.2-0.2-1.8-0.5v0.1c0,1,0.3,1.9,0.9,2.7
	s1.4,1.3,2.3,1.5c-0.6,0.2-1.2,0.2-1.8,0.1c0.3,0.8,0.7,1.6,1.4,2.1c0.7,0.5,1.5,0.8,2.3,0.8c-1.4,1.2-3.1,1.8-4.9,1.8
	c-0.3,0-0.6,0-0.9-0.1C4.3,20.4,6.4,21,8.6,21c7.3,0,11.2-6.4,11.2-11.9c0-0.2,0-0.4,0-0.5C20.6,7.9,21.2,7.2,21.8,6.4L21.8,6.4z"/>
</svg>
