<svg width="949" height="805" viewBox="0 0 949 805" fill="none" xmlns="http://www.w3.org/2000/svg">
<path d="M774.572 613.883L785.071 613.882V603.383V539.47L932.379 660.878L785.071 782.261V718.346V707.846H774.571H575.312C609.713 681.722 639.57 649.978 663.522 613.886L774.572 613.883Z" stroke="white" stroke-opacity="0.1" stroke-width="21"/>
<path d="M345.675 707.737L330.017 707.844H-21.3895V613.909H343.565C460.259 613.909 555.201 518.967 555.201 402.273C555.201 295.846 476.031 208.468 373.805 193.649L361.799 191.908V204.04V264.894L216.299 143.668L361.799 22.4179V87.6495V97.2446L371.355 98.107C527.075 112.159 649.136 242.906 649.136 402.273C649.136 570.316 513.452 706.591 345.675 707.737Z" stroke="white" stroke-opacity="0.1" stroke-width="21"/>
<path d="M131.929 402.273C131.929 452.784 149.827 499.084 179.45 535.442H69.4919C49.7147 495.019 37.9935 450.101 37.9935 402.273C37.9935 313.904 75.697 234.487 135.744 178.678L209.02 239.733C162.189 278.479 131.929 336.724 131.929 402.273Z" stroke="white" stroke-opacity="0.1" stroke-width="21"/>
</svg>
