<?xml version="1.0" encoding="utf-8"?>
<!-- Generator: Adobe Illustrator 22.0.0, SVG Export Plug-In . SVG Version: 6.00 Build 0)  -->
<svg version="1.1" id="Calque_1" xmlns="http://www.w3.org/2000/svg" xmlns:xlink="http://www.w3.org/1999/xlink" x="0px" y="0px"
	 viewBox="0 0 519 807" style="enable-background:new 0 0 519 807;" xml:space="preserve">
<style type="text/css">
	.st0{fill:#FFFFFF;fill-opacity:0.1;}
</style>
<path class="st0" d="M315,0L0.2,72.9v556l201.2,176.2l2.4,1.8l314.8-72.9V178.7L315,0z M312,13.4l189.7,165.9l-294.8,68.1L17.7,81.4
	L312,13.4z M307.1,237v311.7l-95.5,21.9V258.9L307.1,237z M12.3,93L199.6,257v317.2L12.3,617.4V93z M206.8,794.2L17.7,628.3
	L312,560.3l189.7,165.9L206.8,794.2z M506.5,714.6L319.2,550.6V234l187.3-43.1V714.6z"/>
</svg>
