<?xml version="1.0" encoding="utf-8"?>
<!-- Generator: Adobe Illustrator 16.0.0, SVG Export Plug-In . SVG Version: 6.00 Build 0)  -->
<!DOCTYPE svg PUBLIC "-//W3C//DTD SVG 1.1//EN" "http://www.w3.org/Graphics/SVG/1.1/DTD/svg11.dtd">
<svg version="1.1" id="Calque_1" xmlns="http://www.w3.org/2000/svg" xmlns:xlink="http://www.w3.org/1999/xlink" x="0px" y="0px"
	 width="199.93px" height="25.312px" viewBox="0 0 199.93 25.312" enable-background="new 0 0 199.93 25.312" xml:space="preserve">
<path fill="#FFFFFF" d="M0.258,0.42h4.301v20.559h12.866v3.917H0.258V0.42z"/>
<path fill="#FFFFFF" d="M47.035,4.266H33.188v6.363H45.46v3.846H33.188v6.572h14.021v3.847h-18.32V0.42h18.146V4.266z"/>
<path fill="#FFFFFF" d="M100.957,0.42v24.475h-4.3V0.42H100.957z"/>
<path fill="#FFFFFF" d="M124.492,25.312c-7.519,0-12.764-5.698-12.764-12.621C111.73,5.768,117.044,0,124.561,0
	c7.521,0,12.764,5.699,12.764,12.621C137.322,19.544,132.009,25.312,124.492,25.312z M124.492,3.952
	c-4.861,0-8.252,3.88-8.252,8.669c0,4.79,3.462,8.741,8.318,8.741c4.859,0,8.252-3.881,8.252-8.671S129.351,3.952,124.492,3.952z"/>
<path fill="#FFFFFF" d="M157.666,10.699c5.174,1.258,7.866,3.11,7.866,7.202c0,4.616-3.603,7.34-8.74,7.34
	c-3.74,0-7.271-1.293-10.209-3.916l2.587-3.075c2.343,2.028,4.686,3.181,7.727,3.181c2.657,0,4.337-1.224,4.337-3.11
	c0-1.783-0.979-2.691-5.523-3.775c-5.209-1.225-8.146-2.797-8.146-7.342c0-4.266,3.496-7.132,8.356-7.132
	c3.562,0,6.396,1.083,8.88,3.075l-2.309,3.251c-2.201-1.644-4.404-2.517-6.644-2.517c-2.517,0-3.982,1.293-3.982,2.938
	C151.863,8.742,152.98,9.58,157.666,10.699z"/>
<path fill="#FFFFFF" d="M199.93,24.894h-4.546l-2.482-5.91H181.33l-2.52,5.91h-4.403l10.769-24.65h3.986L199.93,24.894z
	 M187.099,5.385l-4.195,9.788h8.428L187.099,5.385z"/>
<path fill="#FFFFFF" d="M79.301,4.341l-3.682,6.376l-3.684,6.378l-3.681-6.378l-3.684-6.376H79.301 M86.056,0.442H57.82
	l7.062,12.225l7.057,12.228l7.062-12.228L86.056,0.442L86.056,0.442z"/>
</svg>
