<svg width="336" height="44" viewBox="0 0 336 44" fill="none" xmlns="http://www.w3.org/2000/svg">
<path d="M33.4 22.1V43.2001H21.6V0.300049H30.8L48 22.1V0.300049H59.8V43.2001H50.4L33.4 22.1Z" fill="#FFE900"/>
<path d="M164.7 0.300049L173.1 29.6L181.3 0.300049H193.7L178.9 43.2001H167.2L152.2 0.300049H164.7Z" fill="#FFE900"/>
<path d="M228 32.9001V43.2001H197.5V0.300049H227.4V10.6H209.2V16.6H224.8V26.1H209.2V32.9001H228Z" fill="#FFE900"/>
<path d="M244.1 0.300049L251.9 13.8L259.7 0.300049H272.4L258.9 22L271.9 43.2001H259.2L251.9 30.3L244.6 43.2001H231.9L244.8 22L231.4 0.300049H244.1Z" fill="#FFE900"/>
<path d="M309.3 0.300049H322.5L336 43.2001H324.1L321.9 34.8H309.8L307.6 43.2001H295.6L309.3 0.300049ZM319.8 26.9L315.8 11.8L311.8 26.9H319.8Z" fill="#FFE900"/>
<path d="M78.1 22.1V43.2001H66.4V0.300049H75.5L92.7 22.1V0.300049H104.5V43.2001H95.2L78.1 22.1Z" fill="#FFE900"/>
<path d="M131.5 0C119.5 0 109.8 9.7 109.8 21.7C109.8 33.7 119.5 43.4 131.5 43.4C143.5 43.4 153.2 33.7 153.2 21.7C153.3 9.7 143.5 0 131.5 0ZM131.5 31.5C126.1 31.5 121.7 27.1 121.7 21.7C121.7 16.3 126.1 11.9 131.5 11.9C136.9 11.9 141.3 16.3 141.3 21.7C141.3 27.1 136.9 31.5 131.5 31.5Z" fill="#FFE900"/>
<path d="M277.1 0.299805V10.5998H280.9V32.8998H277.1V43.1998H292.6V0.299805H277.1Z" fill="#FFE900"/>
<path d="M15.6 0.299805V10.5998H11.8V32.8998H15.6V43.1998H0V0.299805H15.6Z" fill="#FFE900"/>
</svg>
