<svg width="556" height="258" viewBox="0 0 556 258" fill="none" xmlns="http://www.w3.org/2000/svg">
<path d="M99.129 0L0 23.3133V201.077L63.3588 257.417L64.1199 258L163.249 234.687V57.1175L99.129 0ZM98.1776 4.2741L157.921 57.3117L65.0712 79.0708L5.51774 26.0331L98.1776 4.2741ZM96.6555 75.7681V175.432L66.5934 182.426V82.762L96.6555 75.7681ZM3.80533 29.7244L62.788 82.1792V183.592L3.80533 197.386V29.7244ZM65.0712 253.92L5.51774 200.883L98.1776 179.123L157.921 232.161L65.0712 253.92ZM159.444 228.47L100.461 176.015V74.7967L159.444 61.003V228.47Z" fill="#FFE900"/>
<path d="M272.652 99.4698V140.268H250.201V57.1174H267.705L300.431 99.4698V57.1174H322.692V140.268H304.997L272.652 99.4698Z" fill="#FFE900"/>
<path d="M229.081 151.73L245.064 208.459L260.666 151.73H284.259L256.099 234.881H233.838L205.488 151.73H229.081Z" fill="#FFE900"/>
<path d="M349.52 215.065V234.881H291.489V151.73H348.569V171.547H313.75V183.398H343.431V201.854H313.75V215.065H349.52Z" fill="#FFE900"/>
<path d="M380.153 151.73L394.994 177.958L409.834 151.73H433.998L408.312 193.889L433.047 234.881H408.883L394.994 209.819L381.104 234.881H356.94L381.675 193.889L355.989 151.73H380.153Z" fill="#FFE900"/>
<path d="M504.207 151.73H529.322L555.198 234.881H532.557L528.371 218.562H505.349L501.163 234.881H478.331L504.207 151.73ZM524.185 203.408L516.574 174.072L508.964 203.408H524.185Z" fill="#FFE900"/>
<path d="M357.701 99.4698V140.268H335.25V57.1174H352.755L385.48 99.4698V57.1174H407.932V140.268H390.047L357.701 99.4698Z" fill="#FFE900"/>
<path d="M459.304 56.5342C436.472 56.5342 418.016 75.3791 418.016 98.6923C418.016 122.006 436.472 140.85 459.304 140.85C482.136 140.85 500.592 122.006 500.592 98.6923C500.592 75.3791 482.136 56.5342 459.304 56.5342ZM459.304 117.731C449.03 117.731 440.658 109.183 440.658 98.6923C440.658 88.2013 449.03 79.6532 459.304 79.6532C469.578 79.6532 477.95 88.2013 477.95 98.6923C477.95 109.183 469.578 117.731 459.304 117.731Z" fill="#FFE900"/>
<path d="M442.941 151.73V171.546H450.171V215.064H442.941V234.881H472.623V151.73H442.941Z" fill="#FFE900"/>
<path d="M238.595 57.1161V76.9324H231.364V120.45H238.595V140.267H209.103V57.1161H238.595Z" fill="#FFE900"/>
</svg>
