<svg width="335" height="44" viewBox="0 0 335 44" fill="none" xmlns="http://www.w3.org/2000/svg">
<path d="M33.6315 22.0998V43.1998H21.9136V0.299805H31.0496L48.13 22.0998V0.299805H59.848V43.1998H50.5134L33.6315 22.0998Z" fill="white"/>
<path d="M164.019 0.299805L172.36 29.5998L180.503 0.299805H192.817L178.12 43.1998H166.501L151.606 0.299805H164.019Z" fill="white"/>
<path d="M226.879 32.8998V43.1998H196.591V0.299805H226.283V10.5998H208.209V16.5998H223.701V26.0998H208.209V32.8998H226.879Z" fill="white"/>
<path d="M242.867 0.299805L250.613 13.7998L258.359 0.299805H270.97L257.564 21.9998L270.474 43.1998H257.862L250.613 30.2998L243.364 43.1998H230.752L243.562 21.9998L230.255 0.299805H242.867Z" fill="white"/>
<path d="M307.614 0.299805H320.722L334.128 43.1998H322.311L320.126 34.7998H308.11L305.925 43.1998H294.009L307.614 0.299805ZM318.041 26.8998L314.068 11.7998L310.096 26.8998H318.041Z" fill="white"/>
<path d="M78.0209 22.0998V43.1998H66.4022V0.299805H75.439L92.5194 22.0998V0.299805H104.237V43.1998H95.002L78.0209 22.0998Z" fill="white"/>
<path d="M131.05 0C119.133 0 109.5 9.7 109.5 21.7C109.5 33.7 119.133 43.4 131.05 43.4C142.966 43.4 152.599 33.7 152.599 21.7C152.698 9.7 142.966 0 131.05 0ZM131.05 31.5C125.687 31.5 121.318 27.1 121.318 21.7C121.318 16.3 125.687 11.9 131.05 11.9C136.412 11.9 140.782 16.3 140.782 21.7C140.782 27.1 136.412 31.5 131.05 31.5Z" fill="white"/>
<path d="M275.638 0.299805V10.5998H279.411V32.8998H275.638V43.1998H291.03V0.299805H275.638Z" fill="white"/>
<path d="M15.9553 0.299805V10.5998H12.1817V32.8998H15.9553V43.1998H0.463745V0.299805H15.9553Z" fill="white"/>
</svg>
